<svg xmlns="http://www.w3.org/2000/svg" viewBox="0 0 600 440" role="img" aria-label="Northfield University campus map">
  <rect width="600" height="440" fill="#f7f5f4"/>
  <rect x="265" y="30" width="70" height="410" fill="#e3dedc"/>
  <g fill="#ffffff" stroke="#141414" stroke-width="2.5">
    <rect x="50" y="40" width="185" height="95" rx="6"/>
    <rect x="50" y="170" width="185" height="105" rx="6"/>
    <rect x="50" y="310" width="185" height="95" rx="6"/>
    <rect x="365" y="40" width="185" height="95" rx="6"/>
    <rect x="365" y="170" width="185" height="105" rx="6"/>
    <rect x="365" y="310" width="185" height="95" rx="6"/>
  </g>
  <g font-family="Arial, Helvetica, sans-serif" font-size="40" font-weight="700" fill="#141414" text-anchor="middle" dominant-baseline="middle">
    <text x="142" y="88">A</text>
    <text x="142" y="223">B</text>
    <text x="142" y="358">C</text>
    <text x="457" y="88">D</text>
    <text x="457" y="223">E</text>
    <text x="457" y="358">F</text>
  </g>
  <circle cx="300" cy="223" r="26" fill="#cfd8e3" stroke="#141414" stroke-width="2.5"/>
  <text x="300" y="223" font-family="Arial, Helvetica, sans-serif" font-size="11" font-weight="700" fill="#141414" text-anchor="middle" dominant-baseline="middle">FOUNTAIN</text>
  <path d="M300 428 L300 390 M288 402 L300 388 L312 402" fill="none" stroke="#c8102e" stroke-width="4" stroke-linecap="round" stroke-linejoin="round"/>
  <text x="300" y="437" font-family="Arial, Helvetica, sans-serif" font-size="11" font-weight="700" fill="#c8102e" text-anchor="middle">MAIN ENTRANCE</text>
</svg>
